<svg width="185" height="36" viewBox="0 0 185 36" fill="none" xmlns="http://www.w3.org/2000/svg">
<g clip-path="url(#clip0_25_1766)">
<path d="M178.525 36H0L6.475 0H185L178.525 36Z" fill="#E7EAF9"/>
<path d="M39.1088 11.0493L36.8333 23.9355H34.2248L35.7048 15.5909L30.7838 23.9355H28.8043L26.8248 15.5724L25.3448 23.9355H22.7363L25.0303 11.0493H27.9718L30.3953 20.6124L36.1673 11.0493H39.1088Z" fill="#1A2254"/>
<path d="M42.9755 13.708L44.3445 20.8526L48.322 13.708H51.0785L42.069 28.7726H39.3125L42.4205 23.6772L40.071 13.708H42.9755Z" fill="#1A2254"/>
<path d="M66.8032 23.9354H64.1947L59.9212 15.0923L58.3487 23.9354H55.7402L58.0342 11.0308H60.6242L64.9162 19.8923L66.4887 11.0308H69.0787L66.8032 23.9354Z" fill="#1A2254"/>
<path d="M78.8471 14.6215C79.6148 15.3415 79.9941 16.3107 79.9941 17.5292C79.9941 17.9261 79.9663 18.2769 79.9016 18.5815C79.8276 18.9507 79.7443 19.2738 79.6611 19.5415H72.1686C72.1593 19.6246 72.1501 19.7538 72.1501 19.9107C72.1501 20.5477 72.3351 21.0554 72.7143 21.4154C73.0936 21.7754 73.5838 21.96 74.2036 21.96C74.7216 21.96 75.1656 21.8492 75.5448 21.6184C75.9241 21.3877 76.2293 21.0923 76.4606 20.723H79.2541C78.8008 21.7107 78.0886 22.5138 77.1358 23.1507C76.1831 23.7877 75.1008 24.1015 73.8891 24.1015C72.5848 24.1015 71.5303 23.7323 70.7441 22.9938C69.9578 22.2554 69.5601 21.2492 69.5601 19.9846C69.5601 19.6153 69.5971 19.2277 69.6711 18.8215C69.8561 17.76 70.2353 16.8369 70.8088 16.0338C71.3823 15.2307 72.0946 14.6215 72.9456 14.1877C73.7966 13.7538 74.7308 13.5415 75.7391 13.5415C77.0433 13.5415 78.0793 13.9015 78.8471 14.6215ZM77.3671 17.5477C77.3671 16.9569 77.1728 16.4954 76.7936 16.163C76.4143 15.8307 75.9148 15.6646 75.2951 15.6646C74.6383 15.6646 74.0556 15.8677 73.5376 16.283C73.0196 16.6984 72.6588 17.2615 72.4461 17.9723H77.3301C77.3578 17.7784 77.3671 17.6307 77.3671 17.5477Z" fill="#1A2254"/>
<path d="M96.94 13.708L92.13 23.9357H89.318L88.726 16.828L85.581 23.9357H82.769L81.585 13.708H84.1935L84.6375 21.4988L87.986 13.708H90.724L91.279 21.4803L94.4425 13.708H96.94Z" fill="#1A2254"/>
<path d="M98.5586 23.723C97.9481 23.4738 97.4671 23.123 97.1156 22.6707C96.7641 22.2184 96.5884 21.7107 96.5884 21.1292C96.5884 21.0461 96.5976 20.8984 96.6254 20.7046H99.1414C99.1044 21.1384 99.2339 21.48 99.5299 21.7477C99.8259 22.0153 100.242 22.1446 100.788 22.1446C101.278 22.1446 101.694 22.0523 102.018 21.8769C102.342 21.7015 102.508 21.4338 102.508 21.0923C102.508 20.7877 102.36 20.5384 102.055 20.3538C101.75 20.1692 101.278 19.9569 100.621 19.7261C99.9646 19.4954 99.4281 19.2646 98.9934 19.043C98.5586 18.8215 98.1886 18.5169 97.8834 18.12C97.5781 17.723 97.4209 17.2246 97.4209 16.6246C97.4209 16.0246 97.5966 15.4892 97.9481 15.0184C98.2996 14.5477 98.7899 14.1877 99.4189 13.9292C100.048 13.6707 100.769 13.5415 101.583 13.5415C102.397 13.5415 103.045 13.6707 103.637 13.9292C104.229 14.1877 104.691 14.5477 105.015 15.0092C105.339 15.4707 105.505 15.9969 105.505 16.5877C105.505 16.7353 105.505 16.8461 105.487 16.92H103.082C103.119 16.4861 102.999 16.1446 102.712 15.8861C102.425 15.6277 102.018 15.4984 101.472 15.4984C101.028 15.4984 100.668 15.5907 100.381 15.7846C100.094 15.9784 99.9554 16.2277 99.9554 16.5507C99.9554 16.8738 100.113 17.1323 100.436 17.3354C100.76 17.5384 101.25 17.76 101.916 18.0092C102.582 18.2677 103.119 18.5077 103.517 18.72C103.914 18.9323 104.266 19.2277 104.562 19.6061C104.858 19.9846 105.006 20.4554 105.006 21.0184C105.006 21.6461 104.812 22.1907 104.432 22.6615C104.053 23.1323 103.526 23.483 102.86 23.7323C102.194 23.9815 101.445 24.1015 100.603 24.1015C99.8536 24.1015 99.1691 23.9723 98.5586 23.723Z" fill="#1A2254"/>
<path d="M115.828 11.0493L117.549 21.2955L122.914 11.0493H125.67L118.659 23.9355H115.514L113.053 11.0493H115.828Z" fill="#1A2254"/>
<path d="M126.364 16.0338C126.91 15.2307 127.585 14.6215 128.371 14.1877C129.158 13.7538 129.99 13.5415 130.869 13.5415C131.637 13.5415 132.275 13.6984 132.802 14.003C133.329 14.3077 133.709 14.6954 133.958 15.1661L134.217 13.7077H136.826L135.013 23.9354H132.404L132.682 22.44C132.275 22.92 131.748 23.3169 131.1 23.6307C130.453 23.9446 129.75 24.1015 128.982 24.1015C128.214 24.1015 127.567 23.9353 126.984 23.5938C126.401 23.2523 125.957 22.7723 125.633 22.1538C125.31 21.5353 125.152 20.8061 125.152 19.9846C125.152 19.6061 125.189 19.2 125.263 18.7846C125.448 17.7507 125.818 16.8369 126.364 16.0338ZM133.385 18.12C133.385 17.3907 133.172 16.8277 132.747 16.4215C132.321 16.0154 131.785 15.8123 131.146 15.8123C130.665 15.8123 130.203 15.9323 129.75 16.163C129.296 16.3938 128.908 16.7354 128.575 17.1877C128.242 17.64 128.02 18.1661 127.909 18.7846C127.872 19.0154 127.853 19.2369 127.853 19.4492C127.853 20.1877 128.066 20.7692 128.482 21.1938C128.899 21.6184 129.435 21.8307 130.073 21.8307C130.554 21.8307 131.026 21.7107 131.479 21.4707C131.933 21.2307 132.33 20.88 132.654 20.4277C132.978 19.9753 133.2 19.44 133.311 18.8215C133.357 18.4984 133.385 18.2677 133.385 18.12Z" fill="#1A2254"/>
<path d="M149.11 13.708L147.297 23.9357H144.707L144.929 22.6434C144.531 23.0865 144.05 23.4372 143.467 23.6865C142.885 23.9357 142.274 24.0649 141.636 24.0649C140.572 24.0649 139.74 23.7788 139.12 23.2065C138.5 22.6342 138.195 21.8219 138.195 20.7603C138.195 20.3634 138.223 20.0126 138.287 19.708L139.342 13.708H141.932L140.933 19.3388C140.896 19.5603 140.877 19.7726 140.877 19.9849C140.877 20.5849 141.044 21.0557 141.377 21.3788C141.71 21.7019 142.182 21.868 142.783 21.868C143.486 21.868 144.087 21.6465 144.577 21.2126C145.068 20.7788 145.382 20.1511 145.521 19.3388L146.52 13.708H149.11Z" fill="#1A2254"/>
<path d="M154.956 10.2739L152.532 23.9355H149.924L152.347 10.2739H154.956Z" fill="#1A2254"/>
<path d="M158.73 20.7787C158.721 20.8526 158.712 20.9541 158.712 21.0741C158.712 21.3233 158.786 21.4987 158.924 21.6002C159.063 21.7018 159.304 21.7572 159.637 21.7572H160.858L160.469 23.9356H158.823C156.973 23.9356 156.048 23.1695 156.048 21.6279C156.048 21.3326 156.075 21.0464 156.122 20.7602L156.991 15.831H155.77L156.14 13.7079H157.38L157.824 11.1787H160.432L159.988 13.7079H162.264L161.894 15.831H159.6L158.73 20.7787Z" fill="#1A2254"/>
</g>
<defs>
<clipPath id="clip0_25_1766">
<rect width="185" height="36" fill="white"/>
</clipPath>
</defs>
</svg>
