<svg width="12" height="12" viewBox="0 0 12 12" fill="none" xmlns="http://www.w3.org/2000/svg">
<path d="M5.99961 6.0001C5.24961 6.0001 4.61211 5.7376 4.08711 5.2126C3.56211 4.6876 3.29961 4.0501 3.29961 3.3001C3.29961 2.5501 3.56211 1.9126 4.08711 1.3876C4.61211 0.862598 5.24961 0.600098 5.99961 0.600098C6.74961 0.600098 7.38711 0.862598 7.91211 1.3876C8.43711 1.9126 8.69961 2.5501 8.69961 3.3001C8.69961 4.0501 8.43711 4.6876 7.91211 5.2126C7.38711 5.7376 6.74961 6.0001 5.99961 6.0001ZM0.599609 11.4001V9.6001C0.599609 9.3126 0.677734 9.04072 0.833984 8.78447C0.990234 8.52822 1.20586 8.3126 1.48086 8.1376C2.16836 7.7376 2.89518 7.43135 3.66133 7.21885C4.4275 7.00635 5.20562 6.9001 5.99571 6.9001C6.78581 6.9001 7.56523 7.00635 8.33398 7.21885C9.10273 7.43135 9.83086 7.7376 10.5184 8.1376C10.7934 8.3001 11.009 8.5126 11.1652 8.7751C11.3215 9.0376 11.3996 9.3126 11.3996 9.6001V11.4001H0.599609ZM1.94961 10.0501H10.0496V9.6001C10.0496 9.5354 10.0307 9.47657 9.99289 9.42362C9.95508 9.37069 9.90523 9.32951 9.84336 9.3001C9.26836 8.9501 8.65586 8.6876 8.00586 8.5126C7.35586 8.3376 6.68711 8.2501 5.99961 8.2501C5.31211 8.2501 4.64336 8.3376 3.99336 8.5126C3.34336 8.6876 2.73086 8.9501 2.15586 9.3001C2.09336 9.3501 2.04336 9.39837 2.00586 9.44492C1.96836 9.49147 1.94961 9.5432 1.94961 9.6001V10.0501ZM6.00358 4.6501C6.37593 4.6501 6.69336 4.51752 6.95586 4.25237C7.21836 3.98721 7.34961 3.66846 7.34961 3.29612C7.34961 2.92377 7.21704 2.60635 6.95189 2.34385C6.68672 2.08135 6.36797 1.9501 5.99563 1.9501C5.62328 1.9501 5.30586 2.08267 5.04336 2.34782C4.78086 2.61298 4.64961 2.93173 4.64961 3.30407C4.64961 3.67642 4.78218 3.99385 5.04733 4.25635C5.3125 4.51885 5.63125 4.6501 6.00358 4.6501Z" fill="#1A2254"/>
</svg>
