<svg width="40" height="40" viewBox="0 0 40 40" fill="none" xmlns="http://www.w3.org/2000/svg">
<circle cx="20" cy="20" r="20" fill="#A3A7BB"/>
<path d="M5.001 24V15.86H6.662L9.027 20.194L9.841 21.954H9.896C9.808 21.107 9.687 20.029 9.687 19.105V15.86H11.227V24H9.577L7.223 19.644L6.398 17.895H6.343C6.42 18.775 6.541 19.798 6.541 20.733V24H5.001ZM13.2403 24V15.86H18.2343V17.213H14.8683V19.094H17.7283V20.458H14.8683V22.636H18.3553V24H13.2403ZM20.7778 24L19.2048 15.86H20.8658L21.5148 19.831C21.6358 20.689 21.7678 21.558 21.8888 22.427H21.9328C22.0978 21.558 22.2738 20.678 22.4498 19.831L23.3958 15.86H24.7818L25.7278 19.831C25.9038 20.667 26.0688 21.547 26.2448 22.427H26.2998C26.4208 21.547 26.5418 20.678 26.6628 19.831L27.3008 15.86H28.8518L27.3448 24H25.3208L24.4078 19.974C24.2758 19.336 24.1548 18.709 24.0558 18.093H24.0118C23.9018 18.709 23.7918 19.336 23.6598 19.974L22.7688 24H20.7778ZM32.472 24.154C31.383 24.154 30.294 23.725 29.502 22.966L30.437 21.844C31.02 22.383 31.79 22.746 32.505 22.746C33.352 22.746 33.803 22.383 33.803 21.811C33.803 21.206 33.308 21.019 32.582 20.711L31.493 20.249C30.668 19.908 29.843 19.248 29.843 18.06C29.843 16.729 31.009 15.706 32.659 15.706C33.605 15.706 34.551 16.08 35.211 16.751L34.386 17.774C33.869 17.345 33.33 17.103 32.659 17.103C31.944 17.103 31.482 17.422 31.482 17.961C31.482 18.544 32.065 18.753 32.758 19.028L33.825 19.479C34.815 19.886 35.464 20.513 35.464 21.69C35.464 23.021 34.353 24.154 32.472 24.154Z" fill="white"/>
</svg>
