<svg width="68" height="59" viewBox="0 0 68 59" fill="none" xmlns="http://www.w3.org/2000/svg">
<path d="M64 58.1116L52.3065 46.4182C51.0863 47.313 49.7483 48.0146 48.2925 48.5231C46.8366 49.0315 45.2875 49.2857 43.645 49.2857C39.5761 49.2857 36.1181 47.8621 33.2708 45.0149C30.4236 42.1677 29 38.7103 29 34.6429C29 30.5754 30.4236 27.1181 33.2708 24.2708C36.1181 21.4236 39.5754 20 43.6429 20C47.7103 20 51.1677 21.4236 54.0149 24.2708C56.8621 27.1181 58.2857 30.5761 58.2857 34.645C58.2857 36.2875 58.0315 37.8366 57.5231 39.2925C57.0146 40.7483 56.313 42.0863 55.4182 43.3065L67.1116 55L64 58.1116ZM43.6429 44.8929C46.4901 44.8929 48.9102 43.8963 50.9033 41.9033C52.8963 39.9102 53.8929 37.4901 53.8929 34.6429C53.8929 31.7956 52.8963 29.3755 50.9033 27.3824C48.9102 25.3894 46.4901 24.3929 43.6429 24.3929C40.7956 24.3929 38.3755 25.3894 36.3824 27.3824C34.3894 29.3755 33.3929 31.7956 33.3929 34.6429C33.3929 37.4901 34.3894 39.9102 36.3824 41.9033C38.3755 43.8963 40.7956 44.8929 43.6429 44.8929Z" fill="#1A2254"/>
<path fill-rule="evenodd" clip-rule="evenodd" d="M0 0H66.2416V38.0346H62.2416V4H4V52.414H39.9173V56.414H0V0Z" fill="#1A2254"/>
<path fill-rule="evenodd" clip-rule="evenodd" d="M64.2416 11.8276H2V7.82764H64.2416V11.8276Z" fill="#1A2254"/>
<path fill-rule="evenodd" clip-rule="evenodd" d="M37.9998 38L46.9998 29L49.1211 31.1213L40.1211 40.1213L37.9998 38Z" fill="#1A2254"/>
<path fill-rule="evenodd" clip-rule="evenodd" d="M40.0002 29L49.0002 38L46.8789 40.1213L37.8789 31.1213L40.0002 29Z" fill="#1A2254"/>
</svg>
