<svg width="48" height="48" viewBox="0 0 48 48" fill="none" xmlns="http://www.w3.org/2000/svg">
<path d="M23.9871 35.6001C24.5997 35.6001 25.1175 35.3928 25.5404 34.9784C25.9633 34.564 26.1748 34.0504 26.1748 33.4378C26.1748 32.8251 25.9676 32.3073 25.5532 31.8844C25.1387 31.4615 24.6252 31.25 24.0126 31.25C23.3999 31.25 22.8821 31.4573 22.4592 31.8717C22.0363 32.2861 21.8248 32.7997 21.8248 33.4123C21.8248 34.025 22.032 34.5428 22.4464 34.9657C22.8609 35.3886 23.3744 35.6001 23.9871 35.6001ZM21.8248 26.9H26.1748V12.4H21.8248V26.9ZM24.0165 47.2001C20.8234 47.2001 17.8172 46.5959 14.9977 45.3876C12.1783 44.1792 9.71126 42.5178 7.59668 40.4032C5.4821 38.2886 3.82064 35.8224 2.6123 33.0047C1.40397 30.1869 0.799805 27.1761 0.799805 23.9724C0.799805 20.7686 1.40397 17.7671 2.6123 14.9678C3.82064 12.1685 5.4821 9.71151 7.59668 7.59692C9.71126 5.48234 12.1774 3.82088 14.9952 2.61255C17.813 1.40422 20.8237 0.800049 24.0275 0.800049C27.2313 0.800049 30.2328 1.40422 33.0321 2.61255C35.8314 3.82088 38.2883 5.48234 40.4029 7.59692C42.5175 9.71151 44.179 12.173 45.3873 14.9813C46.5956 17.7897 47.1998 20.7904 47.1998 23.9834C47.1998 27.1764 46.5956 30.1827 45.3873 33.0021C44.179 35.8216 42.5175 38.2886 40.4029 40.4032C38.2883 42.5178 35.8269 44.1792 33.0186 45.3876C30.2102 46.5959 27.2095 47.2001 24.0165 47.2001ZM23.9998 42.8501C29.2359 42.8501 33.6866 41.0174 37.3519 37.3521C41.0172 33.6869 42.8498 29.2362 42.8498 24C42.8498 18.7639 41.0172 14.3132 37.3519 10.648C33.6866 6.98269 29.2359 5.15005 23.9998 5.15005C18.7637 5.15005 14.313 6.98269 10.6477 10.648C6.98244 14.3132 5.14981 18.7639 5.14981 24C5.14981 29.2362 6.98244 33.6869 10.6477 37.3521C14.313 41.0174 18.7637 42.8501 23.9998 42.8501Z" fill="#C10606"/>
</svg>
